<?xml version="1.0" encoding="UTF-8" standalone="no"?>
<!-- Created with Inkscape (http://www.inkscape.org/) -->

<svg
   width="256mm"
   height="128mm"
   viewBox="0 0 256 128"
   version="1.1"
   id="svg1"
   xmlns:inkscape="http://www.inkscape.org/namespaces/inkscape"
   xmlns:sodipodi="http://sodipodi.sourceforge.net/DTD/sodipodi-0.dtd"
   xmlns="http://www.w3.org/2000/svg"
   xmlns:svg="http://www.w3.org/2000/svg">
  <sodipodi:namedview
     id="namedview1"
     pagecolor="#505050"
     bordercolor="#eeeeee"
     borderopacity="1"
     inkscape:showpageshadow="0"
     inkscape:pageopacity="0"
     inkscape:pagecheckerboard="0"
     inkscape:deskcolor="#505050"
     inkscape:document-units="mm"
     inkscape:export-bgcolor="#00000000" />
  <defs
     id="defs1" />
  <g
     inkscape:label="Layer 1"
     inkscape:groupmode="layer"
     id="layer1"
     transform="translate(22.999999,-84.500005)">
    <rect
       style="fill:#f9f9f9;stroke-width:0.187088"
       id="rect1"
       width="256"
       height="128"
       x="-23"
       y="84.5"
       rx="25" />
    <path
       style="font-style:italic;font-weight:bold;font-size:77.6225px;font-family:'Segoe UI';-inkscape-font-specification:'Segoe UI Bold Italic';fill:#ea580c;fill-opacity:1;stroke-width:0.808567"
       d="m 204.75704,170.16078 q 0,1.44026 -0.56852,2.65311 -0.56853,1.17495 -1.55397,2.04669 -0.94754,0.83383 -2.2741,1.28865 -1.28865,0.45482 -2.80472,0.45482 -1.47816,0 -2.72891,-0.45482 -1.21285,-0.41692 -2.12249,-1.21285 -0.90964,-0.79594 -1.44026,-1.85718 -0.49272,-1.09915 -0.49272,-2.3878 0,-1.44026 0.56852,-2.65311 0.56852,-1.21286 1.55397,-2.04669 0.98544,-0.87174 2.31199,-1.32656 1.32656,-0.49272 2.88053,-0.49272 1.44026,0 2.65311,0.45482 1.25075,0.45482 2.12249,1.25075 0.90964,0.79594 1.40236,1.89508 0.49272,1.09915 0.49272,2.38781 z"
       id="path4" />
    <path
       style="font-style:italic;font-weight:bold;font-size:77.6225px;font-family:'Segoe UI';-inkscape-font-specification:'Segoe UI Bold Italic';fill:#1a1a1a;stroke-width:0.808567"
       d="m 201.91441,131.27372 h -15.31225 l -9.3996,44.38279 h -12.31802 l 9.36169,-44.38279 h -15.50176 l 2.1604,-9.96812 h 43.16993 z"
       id="path3" />
    <path
       style="font-style:italic;font-weight:bold;font-size:77.6225px;font-family:'Segoe UI';-inkscape-font-specification:'Segoe UI Bold Italic';fill:#1a1a1a;stroke-width:0.808567"
       d="m 154.61321,135.13969 q 0,3.44904 -1.25075,6.25376 -1.25075,2.76682 -3.41115,4.81351 -2.16039,2.04669 -5.07881,3.33534 -2.88052,1.28865 -6.17796,1.74347 v 0.15161 q 2.3499,0.75803 4.01757,2.88052 1.66767,2.12249 2.5015,5.64734 l 3.79016,15.69127 h -13.11395 l -2.95633,-13.98569 q -0.68223,-3.37325 -2.3878,-5.07882 -1.70557,-1.74347 -4.6619,-1.74347 h -2.08459 l -4.43448,20.80798 h -12.35593 l 11.55999,-54.35091 h 18.57179 q 4.7377,0 8.07304,1.13705 3.33534,1.09915 5.41993,3.03213 2.08459,1.89508 3.03213,4.39658 0.94754,2.50151 0.94754,5.26833 z m -13.03815,2.00878 q 0,-3.14583 -1.85718,-4.8893 -1.85718,-1.78138 -5.60944,-1.78138 h -5.11672 l -3.25953,15.12274 h 4.96511 q 2.80472,0 4.8514,-0.68223 2.04669,-0.72013 3.37325,-1.85718 1.32655,-1.17495 1.97088,-2.69101 0.68223,-1.55397 0.68223,-3.22164 z"
       id="path2" />
    <path
       style="font-style:italic;font-weight:bold;font-size:77.6225px;font-family:'Segoe UI';-inkscape-font-specification:'Segoe UI Bold Italic';fill:#1a1a1a;stroke-width:0.808567"
       d="M 94.728664,175.65651 H 82.41064 l 4.623997,-21.98293 H 64.710588 L 60.04869,175.65651 H 47.692765 L 59.252757,121.3056 h 12.355924 l -4.661898,21.67972 h 22.36195 l 4.661898,-21.67972 h 12.318019 z"
       id="path1" />
    <path
       style="font-style:italic;font-weight:bold;font-size:77.6225px;font-family:'Segoe UI';-inkscape-font-specification:'Segoe UI Bold Italic';fill:#1a1a1a;stroke-width:0.808567"
       d="m 44.584832,133.88894 q -1.17495,-0.72014 -2.615211,-1.40236 -1.40236,-0.72014 -3.032129,-1.25076 -1.591867,-0.53062 -3.373243,-0.87173 -1.781376,-0.34112 -3.714358,-0.34112 -2.160392,0 -3.638554,0.60643 -1.478163,0.56852 -2.3499,1.44026 -0.871737,0.87173 -1.250753,1.89508 -0.379017,0.98544 -0.379017,1.85718 0,1.25075 0.379017,2.312 0.416917,1.02334 1.250753,2.00878 0.871737,0.94754 2.236195,1.97088 1.402359,0.98545 3.373243,2.1983 2.577309,1.59187 4.548193,3.22163 2.008786,1.59187 3.411145,3.44905 1.40236,1.81928 2.12249,3.97967 0.720131,2.16039 0.720131,4.85141 0,1.55396 -0.379016,3.41114 -0.341115,1.85718 -1.212852,3.75226 -0.871737,1.85718 -2.425703,3.60065 -1.516064,1.74348 -3.828062,3.07003 -2.311999,1.32656 -5.571537,2.12249 -3.221637,0.83384 -7.542421,0.83384 -2.425703,0 -4.737701,-0.34111 -2.274096,-0.30322 -4.358685,-0.83384 -2.046687,-0.56852 -3.8280626,-1.25075 -1.7813757,-0.68223 -3.1458336,-1.40236 l 2.0845885,-10.76406 q 1.4023596,1.02334 3.0321287,1.93298 1.667671,0.90964 3.449047,1.59187 1.819277,0.68223 3.752259,1.06124 1.932982,0.37902 3.903866,0.37902 2.160392,0 3.676456,-0.45482 1.516065,-0.49272 2.463605,-1.32655 0.94754,-0.83384 1.364458,-1.93299 0.416917,-1.09914 0.416917,-2.3499 0,-1.25075 -0.416917,-2.23619 -0.379016,-1.02335 -1.288655,-1.93298 -0.909639,-0.94754 -2.425703,-1.93299 -1.478163,-1.02334 -3.638555,-2.27409 -2.311998,-1.28866 -4.207078,-2.76682 -1.895081,-1.51606 -3.259539,-3.33534 -1.364458,-1.85718 -2.12249,-4.09338 -0.758032,-2.27409 -0.758032,-5.04091 0,-3.14583 1.17495,-6.17796 1.17495,-3.03213 3.676456,-5.41993 2.501506,-2.3878 6.36747,-3.82807 3.903866,-1.47816 9.285895,-1.47816 2.236195,0 4.320783,0.26531 2.084589,0.22741 3.979669,0.64433 1.895081,0.41692 3.562752,0.94754 1.667671,0.53062 3.032129,1.09915 z"
       id="text1" />
  </g>
</svg>
